<svg width="565" height="153" viewBox="0 0 565 153" fill="none" xmlns="http://www.w3.org/2000/svg">
<g clip-path="url(#clip0_101_5)">
<path d="M33.5079 34C38.7707 34 43.2756 35.9014 47.0226 39.7043C50.7981 43.4783 52.6859 48.0158 52.6859 53.3167V53.4895C52.6859 56.9755 51.8421 60.1877 50.1545 63.1263C48.467 66.0648 46.1502 68.3984 43.2041 70.1269C40.2867 71.8267 37.1118 72.6766 33.6795 72.6766H16.7754V98H0V34.0432L33.5079 34ZM50.0258 50.5078C49.9686 50.1332 49.8542 49.6003 49.6826 48.9088H37.455C37.6838 49.4562 37.8554 49.9892 37.9699 50.5078H50.0258ZM48.2668 45.2789H35.224C35.9105 46.1143 36.3252 46.6473 36.4682 46.8778H49.039C48.8388 46.3592 48.5814 45.8262 48.2668 45.2789ZM46.9796 43.291C46.5506 42.7148 46.1073 42.1819 45.6496 41.6921H29.9039V41.8217C31.048 42.1675 32.0777 42.6572 32.993 43.291H46.9796ZM2.40261 38.0621V39.661H43.3328C42.3603 38.9696 41.4594 38.4366 40.6299 38.0621H2.40261ZM2.40261 41.6921V43.291H14.3728V41.6921H2.40261ZM2.40261 45.2789V46.8778H14.3728V45.2789H2.40261ZM2.40261 48.9088V50.5078H14.3728V48.9088H2.40261ZM2.40261 52.4956V54.0945H14.3728V52.4956H2.40261ZM2.40261 56.0824V57.7245H14.3728V56.0824H2.40261ZM2.40261 59.7124V61.3113H14.3728V59.7124H2.40261ZM2.40261 64.898H14.3728V63.2991H2.40261V64.898ZM16.7754 62.9966H26.8149C29.3605 62.8814 31.5057 61.8875 33.2504 60.0149C35.0238 58.1422 35.9105 55.9095 35.9105 53.3167C35.9105 50.6662 34.9666 48.4047 33.0788 46.5321C31.1911 44.6307 28.9315 43.6799 26.3 43.6799H16.7754V62.9966ZM45.7354 64.898C46.1931 64.4083 46.6364 63.8753 47.0655 63.2991H33.0788C31.9633 64.0482 30.8335 64.5811 29.6894 64.898H45.7354ZM48.3097 61.3113C48.7673 60.3606 49.0247 59.8276 49.0819 59.7124H36.5111C36.2823 60.0869 35.8819 60.6199 35.3098 61.3113H48.3097ZM49.7255 57.7245C49.8971 57.0907 50.0115 56.5433 50.0687 56.0824H37.9699C37.7982 56.8314 37.6409 57.3788 37.4979 57.7245H49.7255ZM50.2832 54.0945V53.3167C50.2832 53.2014 50.2689 53.0574 50.2403 52.8845C50.2403 52.7117 50.2403 52.582 50.2403 52.4956H38.2702C38.2702 52.582 38.2702 52.7117 38.2702 52.8845C38.2988 53.0574 38.3131 53.2014 38.3131 53.3167C38.3131 53.4031 38.2988 53.5327 38.2702 53.7056C38.2702 53.8785 38.2702 54.0081 38.2702 54.0945H50.2832Z" fill="#CBA1CB"/>
<path d="M108.933 34V43.6367H72.9793V61.7866H94.517V71.4666L72.9793 71.4234V88.3633H108.933V98H56.204V34.0432L108.933 34ZM58.6066 41.6921V43.291H70.5767V41.6921H58.6066ZM58.6066 45.2789V46.8778H70.5767V45.2789H58.6066ZM58.6066 48.9088V50.5078H70.5767V48.9088H58.6066ZM58.6066 52.5388V54.181H70.5767V52.5388H58.6066ZM58.6066 56.212V57.8109H70.5767V56.212H58.6066ZM58.6066 59.842V61.4409H70.5767V59.842H58.6066ZM92.0286 63.472H58.6066V65.0709H92.0286V63.472ZM58.6066 39.661H106.53V38.0189H58.6066V39.661Z" fill="#CBA1CB"/>
<path d="M165.094 82.3133V96.79V98H148.447L148.404 96.79V96.2714C148.404 95.9545 148.39 95.508 148.361 94.9318C148.361 94.3556 148.361 93.693 148.361 92.944C148.361 92.1949 148.361 91.3738 148.361 90.4808C148.361 89.5877 148.347 88.6946 148.318 87.8015C148.318 86.8796 148.318 85.9433 148.318 84.9926C148.318 84.0131 148.318 83.12 148.318 82.3133C148.318 79.6916 147.417 77.4445 145.615 75.5719C143.842 73.6993 141.654 72.7198 139.051 72.6334H129.183V98H112.408V34.0432L145.916 34C151.179 34 155.684 35.9014 159.43 39.7043C163.206 43.4783 165.094 48.0158 165.094 53.3167C165.094 56.14 164.536 58.8049 163.421 61.3113C162.305 63.7889 160.703 65.9496 158.615 67.7934C160.703 69.6372 162.305 71.8123 163.421 74.3187C164.536 76.8251 165.094 79.49 165.094 82.3133ZM160.718 61.3113C161.147 60.4758 161.404 59.9284 161.49 59.6691H148.919C148.633 60.1589 148.233 60.7063 147.718 61.3113H160.718ZM162.133 57.6813C162.305 56.9899 162.419 56.4569 162.477 56.0824H150.378C150.235 56.7738 150.077 57.3068 149.906 57.6813H162.133ZM162.691 53.3167C162.691 53.2014 162.677 53.0574 162.648 52.8845C162.648 52.7117 162.648 52.582 162.648 52.4956H150.678C150.678 52.582 150.678 52.7117 150.678 52.8845C150.707 53.0574 150.721 53.2014 150.721 53.3167C150.721 53.4031 150.707 53.5327 150.678 53.7056C150.678 53.8785 150.678 54.0081 150.678 54.0945H162.691V53.3167ZM162.434 50.5078C162.377 50.0468 162.262 49.4994 162.091 48.8656H149.863C150.063 49.3554 150.235 49.9028 150.378 50.5078H162.434ZM160.675 45.2789H147.632C148.318 46.1143 148.733 46.6473 148.876 46.8778H161.447C161.247 46.3592 160.989 45.8262 160.675 45.2789ZM159.388 43.291C158.959 42.7148 158.515 42.1819 158.058 41.6921H142.312V41.7785C143.399 42.1242 144.428 42.6284 145.401 43.291H159.388ZM114.811 38.0189V39.661H155.741C154.654 38.8832 153.753 38.3358 153.038 38.0189H114.811ZM114.811 41.6921V43.291H126.781V41.6921H114.811ZM114.811 45.2789V46.8778H126.781V45.2789H114.811ZM114.811 48.8656V50.5078H126.781V48.8656H114.811ZM114.811 52.4956V54.0945H126.781V52.4956H114.811ZM114.811 56.0824V57.6813H126.781V56.0824H114.811ZM114.811 59.6691V61.3113H126.781V59.6691H114.811ZM114.811 64.898H126.781V63.2991H114.811V64.898ZM129.183 62.9534H139.223C141.768 62.8382 143.914 61.8587 145.658 60.0149C147.432 58.1422 148.318 55.9095 148.318 53.3167C148.318 50.6662 147.375 48.3903 145.487 46.4889C143.599 44.5874 141.339 43.6367 138.708 43.6367H129.183V62.9534ZM142.097 64.898H158.143C158.601 64.4083 159.044 63.8753 159.473 63.2991H145.487C144.371 64.0482 143.241 64.5811 142.097 64.898Z" fill="#CBA1CB"/>
<path d="M242.921 34.0432V98H226.146V64.9413V57.5517L226.06 57.6813L225.116 59.7124L224.387 61.3113L223.4 63.3423L222.671 64.9413L210.829 90.135L193.41 90.2215L181.698 65.1141L180.925 63.5152L179.981 61.4841L179.252 59.8852L178.308 57.8542L178.222 57.6381V65.1141V98H168.612V34.0432H185.688L206.067 77.6462L226.575 34.0432H242.921ZM171.015 38.0189V39.661H185.688L184.915 38.0189H171.015ZM171.015 41.6921V43.291H186.417V41.6921H171.015ZM175.82 65.1141V63.5152H171.015V65.1141H175.82ZM175.82 61.4841V59.8852H171.015V61.4841H175.82ZM175.82 57.8542V56.2552H171.015V57.8542H175.82ZM175.82 54.181V52.582H171.015V54.181H175.82ZM175.82 50.551V48.9521H171.015V50.551H175.82ZM175.82 46.8778V46.921H189.077L188.305 45.3221H171.015V46.921H175.82V46.8778ZM177.536 50.551H190.793L190.021 48.9521H176.807L177.536 50.551ZM179.252 54.181H192.466L191.737 52.582H178.48L179.252 54.181ZM180.925 57.8542H194.183L193.41 56.2552H180.196L180.925 57.8542ZM181.869 59.8852L182.641 61.4841H195.899L195.126 59.8852H181.869ZM184.358 65.1141H197.572L196.843 63.5152H183.585L184.358 65.1141ZM227.347 38.0189L226.575 39.661H240.519V38.0189H227.347ZM225.631 41.6921L224.859 43.291H240.519V41.6921H225.631ZM220.011 64.9413L220.74 63.3423H215.463L214.691 64.9413H220.011ZM221.727 61.3113L222.456 59.6691H217.179L216.407 61.3113H221.727ZM223.4 57.6813L224.172 56.0824H218.852L218.123 57.6813H223.4ZM225.116 54.0945L225.846 52.4956H220.568L219.796 54.0945H225.116ZM226.789 50.5078L227.562 48.8656H222.242L221.469 50.5078H226.789ZM228.506 46.8778L228.548 46.7914V46.8778H240.519V45.2789H223.958L223.186 46.8778H228.506ZM228.548 48.8656V50.5078H240.519V48.8656H228.548ZM228.548 52.4956V54.0945H240.519V52.4956H228.548ZM228.548 56.0824V57.6813H240.519V56.0824H228.548ZM228.548 59.6691V61.3113H240.519V59.6691H228.548ZM228.548 64.9413H240.519V63.3423H228.548V64.9413Z" fill="#CBA1CB"/>
<path d="M263.215 34.0432V98H246.439V34.0432H263.215ZM248.842 38.0621V39.661H260.812V38.0621H248.842ZM248.842 41.6921V43.291H260.812V41.6921H248.842ZM248.842 45.3221V46.921H260.812V45.3221H248.842ZM248.842 48.9521V50.551H260.812V48.9521H248.842ZM248.842 52.582V54.181H260.812V52.582H248.842ZM248.842 56.212V57.8542H260.812V56.212H248.842ZM248.842 59.8852V61.4841H260.812V59.8852H248.842ZM248.842 65.0277H260.812V63.3856H248.842V65.0277Z" fill="#CBA1CB"/>
<path d="M319.505 53.3167V54.5267H302.858V53.3167C302.858 52.4524 302.715 51.5161 302.429 50.5078C302.257 49.9892 302.043 49.4562 301.785 48.9088C301.385 48.131 300.913 47.454 300.369 46.8778C299.826 46.2728 299.211 45.7398 298.525 45.2789C296.923 44.2129 295.178 43.6799 293.29 43.6799H293.162H293.119C291.202 43.6799 289.443 44.2129 287.842 45.2789C287.327 45.6246 286.84 46.0279 286.383 46.4889L285.997 46.8778C285.51 47.3964 285.053 48.0734 284.624 48.9088C284.366 49.4562 284.152 49.9892 283.98 50.5078C283.694 51.5161 283.551 52.4524 283.551 53.3167C283.551 56.0248 284.481 58.3151 286.34 60.1877C288.199 62.0603 290.459 62.9966 293.119 62.9966H302.128C306.905 62.9966 310.995 64.7108 314.399 68.1391C317.803 71.5674 319.505 75.6871 319.505 80.4983C319.505 85.3095 317.803 89.4292 314.399 92.8575C310.995 96.2858 306.905 98 302.128 98H285.911C280.648 98 276.143 96.113 272.396 92.339C268.649 88.5649 266.776 84.0131 266.776 78.6833V77.4733H283.551V80.4983C283.551 82.659 284.309 84.5028 285.825 86.0297C287.341 87.5566 289.172 88.3201 291.317 88.3201H294.921C297.066 88.3201 298.896 87.5566 300.412 86.0297C301.957 84.5028 302.729 82.659 302.729 80.4983C302.729 78.3376 301.957 76.4938 300.412 74.9669C298.896 73.44 297.066 72.6766 294.921 72.6766H286.04C282.979 72.6766 280.119 71.9995 277.459 70.6455C274.799 69.2627 272.568 67.3901 270.766 65.0277C270.737 64.9989 270.694 64.9557 270.637 64.898C270.608 64.8116 270.58 64.754 270.551 64.7252C268.091 61.3833 266.862 57.6093 266.862 53.4031C266.862 49.1681 268.091 45.3509 270.551 41.9514C270.58 41.9226 270.608 41.8794 270.637 41.8217C270.694 41.7641 270.737 41.7209 270.766 41.6921C271.366 40.8854 271.924 40.2228 272.439 39.7043C272.782 39.3585 273.326 38.8688 274.069 38.235C274.098 38.2062 274.141 38.1774 274.198 38.1485C274.255 38.0909 274.298 38.0477 274.327 38.0189C277.759 35.3684 281.663 34.0432 286.04 34.0432H300.327C305.647 34.0432 310.166 35.9158 313.884 39.661C317.631 43.4351 319.505 47.9869 319.505 53.3167ZM316.887 50.5078C316.887 50.4213 316.759 49.8884 316.501 48.9088H304.402C304.631 49.4562 304.803 49.9892 304.917 50.5078H316.887ZM269.822 48.9088C269.65 49.6003 269.536 50.1332 269.479 50.5078H281.492C281.606 49.9892 281.778 49.4562 282.007 48.9088H269.822ZM269.264 53.4031V54.1377H281.191C281.191 54.0513 281.177 53.9217 281.149 53.7488C281.149 53.576 281.149 53.4463 281.149 53.3599C281.149 53.2735 281.149 53.1438 281.149 52.971C281.177 52.7693 281.191 52.6253 281.191 52.5388H269.307C269.307 52.6541 269.293 52.7981 269.264 52.971C269.264 53.1438 269.264 53.2879 269.264 53.4031ZM269.522 56.1688C269.579 56.5433 269.693 57.0763 269.865 57.7677H282.007C281.778 57.2203 281.606 56.6874 281.492 56.1688H269.522ZM286.511 63.3856H272.568C272.997 63.9329 273.454 64.4803 273.941 65.0277H289.558V64.8548C288.414 64.4803 287.398 63.9905 286.511 63.3856ZM284.195 61.3545C283.623 60.6631 283.222 60.1301 282.993 59.7556H270.508C270.709 60.2741 270.966 60.8071 271.281 61.3545H284.195ZM282.993 46.8778C283.279 46.4168 283.694 45.8839 284.238 45.2789H271.281C270.966 45.8262 270.709 46.3592 270.508 46.8778H282.993ZM286.511 43.291C287.598 42.5708 288.785 42.0378 290.073 41.6921H273.898C273.44 42.1819 272.997 42.7148 272.568 43.291H286.511ZM276.215 39.661H310.151C309.122 38.9408 308.207 38.3934 307.406 38.0189H278.96C278.16 38.3934 277.244 38.9408 276.215 39.661ZM299.897 43.291H313.798C313.369 42.7148 312.926 42.1819 312.468 41.6921H296.336C297.681 42.0666 298.868 42.5996 299.897 43.291ZM302.171 45.2789C302.743 45.9703 303.144 46.5033 303.373 46.8778H315.815C315.557 46.2152 315.314 45.6822 315.085 45.2789H302.171Z" fill="#CBA1CB"/>
<path d="M375.708 53.3167V54.5267H359.062V53.3167C359.062 52.4524 358.919 51.5161 358.633 50.5078C358.461 49.9892 358.247 49.4562 357.989 48.9088C357.589 48.131 357.117 47.454 356.573 46.8778C356.03 46.2728 355.415 45.7398 354.729 45.2789C353.127 44.2129 351.382 43.6799 349.494 43.6799H349.366H349.323C347.406 43.6799 345.647 44.2129 344.045 45.2789C343.531 45.6246 343.044 46.0279 342.587 46.4889L342.201 46.8778C341.714 47.3964 341.257 48.0734 340.828 48.9088C340.57 49.4562 340.356 49.9892 340.184 50.5078C339.898 51.5161 339.755 52.4524 339.755 53.3167C339.755 56.0248 340.685 58.3151 342.544 60.1877C344.403 62.0603 346.663 62.9966 349.323 62.9966H358.332C363.109 62.9966 367.199 64.7108 370.603 68.1391C374.007 71.5674 375.708 75.6871 375.708 80.4983C375.708 85.3095 374.007 89.4292 370.603 92.8575C367.199 96.2858 363.109 98 358.332 98H342.115C336.852 98 332.347 96.113 328.6 92.339C324.853 88.5649 322.98 84.0131 322.98 78.6833V77.4733H339.755V80.4983C339.755 82.659 340.513 84.5028 342.029 86.0297C343.545 87.5566 345.375 88.3201 347.521 88.3201H351.125C353.27 88.3201 355.1 87.5566 356.616 86.0297C358.161 84.5028 358.933 82.659 358.933 80.4983C358.933 78.3376 358.161 76.4938 356.616 74.9669C355.1 73.44 353.27 72.6766 351.125 72.6766H342.244C339.183 72.6766 336.323 71.9995 333.663 70.6455C331.003 69.2627 328.772 67.3901 326.97 65.0277C326.941 64.9989 326.898 64.9557 326.841 64.898C326.812 64.8116 326.784 64.754 326.755 64.7252C324.295 61.3833 323.066 57.6093 323.066 53.4031C323.066 49.1681 324.295 45.3509 326.755 41.9514C326.784 41.9226 326.812 41.8794 326.841 41.8217C326.898 41.7641 326.941 41.7209 326.97 41.6921C327.57 40.8854 328.128 40.2228 328.643 39.7043C328.986 39.3585 329.53 38.8688 330.273 38.235C330.302 38.2062 330.345 38.1774 330.402 38.1485C330.459 38.0909 330.502 38.0477 330.531 38.0189C333.963 35.3684 337.867 34.0432 342.244 34.0432H356.53C361.851 34.0432 366.37 35.9158 370.088 39.661C373.835 43.4351 375.708 47.9869 375.708 53.3167ZM373.091 50.5078C373.091 50.4213 372.963 49.8884 372.705 48.9088H360.606C360.835 49.4562 361.007 49.9892 361.121 50.5078H373.091ZM326.026 48.9088C325.854 49.6003 325.74 50.1332 325.683 50.5078H337.696C337.81 49.9892 337.982 49.4562 338.211 48.9088H326.026ZM325.468 53.4031V54.1377H337.395C337.395 54.0513 337.381 53.9217 337.352 53.7488C337.352 53.576 337.352 53.4463 337.352 53.3599C337.352 53.2735 337.352 53.1438 337.352 52.971C337.381 52.7693 337.395 52.6253 337.395 52.5388H325.511C325.511 52.6541 325.497 52.7981 325.468 52.971C325.468 53.1438 325.468 53.2879 325.468 53.4031ZM325.726 56.1688C325.783 56.5433 325.897 57.0763 326.069 57.7677H338.211C337.982 57.2203 337.81 56.6874 337.696 56.1688H325.726ZM342.715 63.3856H328.772C329.201 63.9329 329.658 64.4803 330.145 65.0277H345.762V64.8548C344.618 64.4803 343.602 63.9905 342.715 63.3856ZM340.399 61.3545C339.827 60.6631 339.426 60.1301 339.197 59.7556H326.712C326.913 60.2741 327.17 60.8071 327.485 61.3545H340.399ZM339.197 46.8778C339.483 46.4168 339.898 45.8839 340.442 45.2789H327.485C327.17 45.8262 326.913 46.3592 326.712 46.8778H339.197ZM342.715 43.291C343.802 42.5708 344.989 42.0378 346.276 41.6921H330.102C329.644 42.1819 329.201 42.7148 328.772 43.291H342.715ZM332.419 39.661H366.355C365.326 38.9408 364.41 38.3934 363.61 38.0189H335.164C334.364 38.3934 333.448 38.9408 332.419 39.661ZM356.101 43.291H370.002C369.573 42.7148 369.13 42.1819 368.672 41.6921H352.54C353.885 42.0666 355.072 42.5996 356.101 43.291ZM358.375 45.2789C358.947 45.9703 359.348 46.5033 359.577 46.8778H372.019C371.761 46.2152 371.518 45.6822 371.289 45.2789H358.375Z" fill="#CBA1CB"/>
<path d="M395.959 34.0432V98H379.184V34.0432H395.959ZM381.586 38.0621V39.661H393.556V38.0621H381.586ZM381.586 41.6921V43.291H393.556V41.6921H381.586ZM381.586 45.3221V46.921H393.556V45.3221H381.586ZM381.586 48.9521V50.551H393.556V48.9521H381.586ZM381.586 52.582V54.181H393.556V52.582H381.586ZM381.586 56.212V57.8542H393.556V56.212H381.586ZM381.586 59.8852V61.4841H393.556V59.8852H381.586ZM381.586 65.0277H393.556V63.3856H381.586V65.0277Z" fill="#CBA1CB"/>
<path d="M452.206 60.5334V71.4666C452.206 75.0677 451.505 78.5105 450.104 81.7947C448.731 85.0502 446.857 87.8735 444.483 90.2647C442.138 92.6271 439.335 94.5141 436.074 95.9257C432.842 97.3086 429.438 98 425.863 98C422.345 98 418.984 97.3374 415.781 96.0122C412.577 94.6581 409.731 92.7279 407.243 90.2215C404.754 87.7151 402.838 84.8485 401.494 81.6219C400.178 78.3952 399.52 75.0101 399.52 71.4666V60.5766C399.52 57.0331 400.178 53.648 401.494 50.4213C402.838 47.1659 404.754 44.2849 407.243 41.7785C409.731 39.2721 412.577 37.3563 415.781 36.0311C418.984 34.677 422.345 34 425.863 34C429.438 34 432.842 34.7058 436.074 36.1175C439.335 37.5003 442.138 39.3874 444.483 41.7785C446.857 44.1409 448.731 46.9642 450.104 50.2485C451.505 53.5039 452.206 56.9323 452.206 60.5334ZM442.553 43.2478C442.066 42.758 441.466 42.2251 440.751 41.6489H428.909C430.311 42.0234 431.512 42.5564 432.513 43.2478H442.553ZM417.239 38.0621C416.238 38.4366 415.123 38.9696 413.893 39.661H437.833C436.603 38.9696 435.488 38.4366 434.487 38.0621H417.239ZM410.932 41.6921C410.217 42.2683 409.617 42.8013 409.131 43.291H419.17C420.2 42.5708 421.358 42.0378 422.645 41.6921H410.932ZM402.309 56.1256C402.194 56.817 402.123 57.35 402.094 57.7245H413.893V56.1256H402.309ZM401.923 60.5766V61.3113H413.893V59.7124H401.923V60.5766ZM401.923 64.9845H413.893V63.3856H401.923V64.9845ZM413.893 53.3167C413.893 53.2302 413.893 53.1006 413.893 52.9278C413.921 52.7261 413.936 52.582 413.936 52.4956H403.296C402.981 53.4751 402.809 54.0081 402.781 54.0945H413.893V53.3167ZM414.236 50.5078C414.379 49.8163 414.536 49.2834 414.708 48.9088H404.883C404.626 49.3698 404.354 49.9028 404.068 50.5078H414.236ZM406.127 46.921H415.738C416.024 46.4312 416.424 45.8839 416.939 45.2789H407.329C407.043 45.6246 406.642 46.172 406.127 46.921ZM432.642 85.5111C434.53 83.6097 435.473 81.3338 435.473 78.6833L435.431 53.3167C435.431 50.6662 434.487 48.4047 432.599 46.5321C430.74 44.6307 428.494 43.6799 425.863 43.6799C423.203 43.6799 420.943 44.6163 419.084 46.4889C417.225 48.3615 416.295 50.6374 416.295 53.3167V78.6833C416.295 81.3338 417.225 83.6097 419.084 85.5111C420.972 87.3837 423.232 88.3201 425.863 88.3201C428.523 88.3201 430.783 87.3837 432.642 85.5111ZM434.787 45.2789C435.359 45.9703 435.759 46.5033 435.988 46.8778H445.599C445.198 46.3016 444.798 45.7686 444.397 45.2789H434.787ZM437.018 48.9088C437.19 49.2834 437.347 49.8163 437.49 50.5078H447.658C447.372 49.9028 447.1 49.3698 446.843 48.9088H437.018ZM437.833 53.3167V54.0945H448.945C448.831 53.72 448.659 53.187 448.43 52.4956H437.79C437.79 52.582 437.79 52.7261 437.79 52.9278C437.819 53.1006 437.833 53.2302 437.833 53.3167ZM437.833 56.1256V57.7245H449.675C449.675 57.6669 449.589 57.1339 449.417 56.1256H437.833ZM437.833 59.7124V61.3113H449.846V60.5334C449.846 60.4182 449.832 60.2741 449.803 60.1013C449.803 59.9284 449.803 59.7988 449.803 59.7124H437.833ZM437.833 64.9845H449.846V63.3856H437.833V64.9845Z" fill="#CBA1CB"/>
<path d="M508.796 65.0277V98H500.473L470.569 65.0277L469.11 63.3856L467.265 61.3545L465.806 59.7556L465.635 59.5827V65.0277V98H455.724V34H464.991L465.334 34.4321L499.228 72.5469V65.0277V48.9088V46.8778V45.2789V43.291V38.0189V34H508.753V38.0189V39.6178V41.6489V43.291V45.2789V46.8778L508.796 48.9088V50.5078V54.1377V56.1688V61.3545V63.3856V65.0277ZM458.127 38.0189V39.6178H466.75L465.334 38.0189H458.127ZM458.127 41.6489V43.291H469.968L468.552 41.6489H458.127ZM458.127 45.2789V46.8778H473.186L471.77 45.2789H458.127ZM458.127 48.9088V50.5078H476.404L474.988 48.9088H458.127ZM458.127 56.1688V57.7677H463.232V56.1688H458.127ZM458.127 59.7556V61.3545H463.232V59.7556H458.127ZM458.127 65.0277H463.232V63.3856H458.127V65.0277ZM463.919 54.1377H479.621L478.206 52.4956H458.127V54.1377H463.232V53.3599L463.919 54.1377ZM467.222 57.7677H482.839L481.423 56.1688H465.764L467.222 57.7677ZM470.483 61.3545H486.057L484.641 59.7556H469.024L470.483 61.3545ZM473.787 65.0277H489.318L487.859 63.3856H472.328L473.787 65.0277ZM501.631 38.0189V39.6178H506.393V38.0189H501.631ZM501.631 41.6489V43.291H506.393V41.6489H501.631ZM501.631 45.2789V46.8778H506.393V45.2789H501.631ZM501.631 48.9088L501.588 50.5078H506.393V48.9088H501.631ZM501.588 52.4956V54.1377H506.393V52.4956H501.588ZM501.588 56.1688V57.7677H506.393V56.1688H501.588ZM501.588 59.7556V61.3545H506.393V59.7556H501.588ZM501.588 65.0277H506.393V63.3856H501.588V65.0277Z" fill="#CBA1CB"/>
<path d="M565 53.3167V54.5267H548.353V53.3167C548.353 52.4524 548.21 51.5161 547.924 50.5078C547.753 49.9892 547.538 49.4562 547.281 48.9088C546.88 48.131 546.408 47.454 545.865 46.8778C545.321 46.2728 544.706 45.7398 544.02 45.2789C542.418 44.2129 540.674 43.6799 538.786 43.6799H538.657H538.614C536.698 43.6799 534.939 44.2129 533.337 45.2789C532.822 45.6246 532.336 46.0279 531.878 46.4889L531.492 46.8778C531.006 47.3964 530.548 48.0734 530.119 48.9088C529.862 49.4562 529.647 49.9892 529.476 50.5078C529.19 51.5161 529.047 52.4524 529.047 53.3167C529.047 56.0248 529.976 58.3151 531.835 60.1877C533.695 62.0603 535.954 62.9966 538.614 62.9966H547.624C552.401 62.9966 556.491 64.7108 559.894 68.1391C563.298 71.5674 565 75.6871 565 80.4983C565 85.3095 563.298 89.4292 559.894 92.8575C556.491 96.2858 552.401 98 547.624 98H531.406C526.143 98 521.639 96.113 517.892 92.339C514.145 88.5649 512.271 84.0131 512.271 78.6833V77.4733H529.047V80.4983C529.047 82.659 529.805 84.5028 531.321 86.0297C532.836 87.5566 534.667 88.3201 536.812 88.3201H540.416C542.561 88.3201 544.392 87.5566 545.908 86.0297C547.452 84.5028 548.225 82.659 548.225 80.4983C548.225 78.3376 547.452 76.4938 545.908 74.9669C544.392 73.44 542.561 72.6766 540.416 72.6766H531.535C528.475 72.6766 525.614 71.9995 522.954 70.6455C520.294 69.2627 518.063 67.3901 516.261 65.0277C516.233 64.9989 516.19 64.9557 516.133 64.898C516.104 64.8116 516.075 64.754 516.047 64.7252C513.587 61.3833 512.357 57.6093 512.357 53.4031C512.357 49.1681 513.587 45.3509 516.047 41.9514C516.075 41.9226 516.104 41.8794 516.133 41.8217C516.19 41.7641 516.233 41.7209 516.261 41.6921C516.862 40.8854 517.42 40.2228 517.935 39.7043C518.278 39.3585 518.821 38.8688 519.565 38.235C519.593 38.2062 519.636 38.1774 519.694 38.1485C519.751 38.0909 519.794 38.0477 519.822 38.0189C523.255 35.3684 527.159 34.0432 531.535 34.0432H545.822C551.142 34.0432 555.661 35.9158 559.38 39.661C563.127 43.4351 565 47.9869 565 53.3167ZM562.383 50.5078C562.383 50.4213 562.254 49.8884 561.997 48.9088H549.898C550.127 49.4562 550.298 49.9892 550.413 50.5078H562.383ZM515.317 48.9088C515.146 49.6003 515.031 50.1332 514.974 50.5078H526.987C527.102 49.9892 527.273 49.4562 527.502 48.9088H515.317ZM514.76 53.4031V54.1377H526.687C526.687 54.0513 526.673 53.9217 526.644 53.7488C526.644 53.576 526.644 53.4463 526.644 53.3599C526.644 53.2735 526.644 53.1438 526.644 52.971C526.673 52.7693 526.687 52.6253 526.687 52.5388H514.803C514.803 52.6541 514.788 52.7981 514.76 52.971C514.76 53.1438 514.76 53.2879 514.76 53.4031ZM515.017 56.1688C515.074 56.5433 515.189 57.0763 515.36 57.7677H527.502C527.273 57.2203 527.102 56.6874 526.987 56.1688H515.017ZM532.007 63.3856H518.063C518.492 63.9329 518.95 64.4803 519.436 65.0277H535.053V64.8548C533.909 64.4803 532.894 63.9905 532.007 63.3856ZM529.69 61.3545C529.118 60.6631 528.718 60.1301 528.489 59.7556H516.004C516.204 60.2741 516.462 60.8071 516.776 61.3545H529.69ZM528.489 46.8778C528.775 46.4168 529.19 45.8839 529.733 45.2789H516.776C516.462 45.8262 516.204 46.3592 516.004 46.8778H528.489ZM532.007 43.291C533.094 42.5708 534.281 42.0378 535.568 41.6921H519.393C518.936 42.1819 518.492 42.7148 518.063 43.291H532.007ZM521.71 39.661H555.647C554.617 38.9408 553.702 38.3934 552.901 38.0189H524.456C523.655 38.3934 522.74 38.9408 521.71 39.661ZM545.393 43.291H559.294C558.865 42.7148 558.421 42.1819 557.964 41.6921H541.832C543.176 42.0666 544.363 42.5996 545.393 43.291ZM547.667 45.2789C548.239 45.9703 548.639 46.5033 548.868 46.8778H561.31C561.053 46.2152 560.81 45.6822 560.581 45.2789H547.667Z" fill="#CBA1CB"/>
<path d="M406.5 122.63C406.51 122.77 407.19 122.46 408.51 121.68C409.84 120.9 411.31 119.97 412.94 118.87C414.77 117.68 416.9 116.25 419.33 114.57L419.44 115.75C417.39 117.61 415.42 119.24 413.54 120.65C411.92 121.82 410.3 122.89 408.67 123.88C407.04 124.87 405.78 125.26 404.89 125.06C403.57 124.83 402.73 124.12 402.36 122.92C401.99 121.73 401.84 120.7 401.9 119.83C400.27 121.58 398.74 123.1 397.32 124.39C395.9 125.68 394.71 126.66 393.77 127.33C392.96 127.84 392.18 128.4 391.45 129.02C390.72 129.63 389.9 130.16 389.01 130.61C386.95 131.67 384.68 132.04 382.2 131.7C379.29 131.4 376.94 130.19 375.15 128.05C374.98 127.78 374.81 127.47 374.63 127.13C374.45 126.79 374.27 126.44 374.1 126.1C373.8 124.47 374.23 122.61 375.39 120.51C376.55 118.41 377.97 116.35 379.65 114.31C381.32 112.27 383.03 110.41 384.78 108.73C386.52 107.05 387.79 105.8 388.58 105.01C389.04 104.6 389.79 104.08 390.8 103.44C391.82 102.8 392.96 102.2 394.24 101.65C395.52 101.09 396.91 100.6 398.42 100.16C399.93 99.73 401.4 99.51 402.84 99.52C403.92 99.56 404.63 99.98 404.96 100.77C405.29 101.57 405.71 102.34 406.21 103.08C406.29 103.22 406.41 103.35 406.57 103.48C406.96 103.8 407.43 104.42 407.99 105.34C408.55 106.26 408.82 107.44 408.82 108.88C408.85 109.17 408.84 109.47 408.8 109.8C408.76 110.13 408.69 110.48 408.58 110.85C408.52 110.93 408.49 110.99 408.49 111.02C408.49 111.05 408.46 111.11 408.4 111.19C408.2 112.15 408.01 113.25 407.8 114.49C407.6 115.74 407.39 116.95 407.18 118.12C406.97 119.3 406.8 120.3 406.66 121.15C406.52 122 406.47 122.49 406.48 122.63H406.5ZM384.07 124.16C385.06 123.99 386.47 123.15 388.31 121.64C390.14 120.13 391.97 118.4 393.8 116.45C395.63 114.51 397.22 112.58 398.59 110.68C399.95 108.78 400.66 107.39 400.72 106.52C399.91 106.38 399.12 106.35 398.33 106.43C397.62 106.5 396.84 106.67 396 106.93C395.16 107.19 394.37 107.61 393.64 108.19C393.17 108.6 392.4 109.28 391.3 110.26C390.21 111.23 389.05 112.32 387.84 113.52C386.62 114.72 385.45 115.97 384.32 117.27C383.19 118.57 382.35 119.75 381.8 120.82C381.26 121.88 381.12 122.73 381.4 123.35C381.68 123.97 382.57 124.25 384.07 124.17V124.16Z" fill="url(#paint0_linear_101_5)"/>
<path d="M445 98.55C445.25 98.89 445.66 99.21 446.23 99.51C446.8 99.82 447 100.23 446.84 100.75C446.33 102.17 445.44 103.99 444.18 106.2C442.92 108.42 441.43 110.89 439.71 113.61C437.99 116.34 436.12 119.24 434.07 122.33C432.03 125.41 429.97 128.5 427.89 131.59C428.86 130.48 429.84 129.42 430.82 128.38C431.8 127.35 432.82 126.31 433.87 125.27C436.17 123.03 438.56 120.9 441.03 118.89C443.5 116.88 446.08 114.96 448.79 113.11C449.13 112.86 449.42 112.92 449.67 113.3C449.92 113.68 449.88 113.98 449.54 114.23C447.8 115.63 446.08 117.02 444.38 118.41C442.68 119.8 441 121.23 439.34 122.69C436.95 124.8 434.66 126.99 432.47 129.25C430.28 131.52 428.19 133.9 426.2 136.41C426.01 136.71 425.81 137.02 425.59 137.34C425.37 137.65 425.13 137.96 424.87 138.28C424.57 138.89 424.06 139.8 423.35 141.02C422.64 142.24 421.74 143.52 420.64 144.85C419.41 146.27 418.13 147.58 416.81 148.79C415.49 150 414.06 150.93 412.54 151.58C411.02 152.23 409.37 152.48 407.59 152.33C405.81 152.18 403.84 151.38 401.69 149.93C402.96 149.66 404.31 149.06 405.73 148.13C406.95 147.36 408.32 146.24 409.83 144.76C411.34 143.28 412.88 141.31 414.44 138.85C416.49 135.48 418.32 132.5 419.95 129.93C421.57 127.36 422.64 125.76 423.16 125.13C422.22 125.08 421.06 125.03 419.69 124.98C418.32 124.93 417.26 124.77 416.51 124.48C415.53 124.07 414.6 123.57 413.72 122.96C412.83 122.36 412.09 121.59 411.5 120.63C411.07 119.88 410.76 119.17 410.59 118.5C410.42 117.83 410.43 117.09 410.64 116.28C410.64 116.21 410.77 115.78 411.06 115C411.34 114.21 411.72 113.3 412.2 112.24C412.67 111.19 413.22 110.1 413.83 109C414.44 107.9 415.07 106.95 415.72 106.17C416.23 105.54 416.69 104.99 417.07 104.52C417.46 104.05 417.88 103.61 418.35 103.21C419.28 102.4 420.23 101.6 421.2 100.82C422.17 100.04 423.16 99.31 424.17 98.64C425.46 97.87 426.78 97.14 428.12 96.47C429.46 95.8 430.82 95.14 432.2 94.5C433.95 94.04 435.48 93.97 436.77 94.27C438.06 94.58 439.17 95.05 440.09 95.68C441.02 96.31 441.76 96.94 442.33 97.57C442.89 98.2 443.32 98.54 443.62 98.58C443.77 98.64 443.97 98.64 444.21 98.58C444.46 98.52 444.72 98.51 445.02 98.56L445 98.55ZM419.49 118.45C423.02 116.3 426.09 113.74 428.68 110.74C431.27 107.75 433.7 104.55 435.96 101.16C435.72 100.97 435.56 100.8 435.48 100.67C434.87 101.09 434.22 101.44 433.53 101.73C432.84 102.01 432.19 102.37 431.58 102.78C430.37 103.69 429.15 104.6 427.9 105.52C426.66 106.43 425.51 107.45 424.47 108.56C423.55 109.51 422.7 110.55 421.91 111.68C421.12 112.8 420.38 113.94 419.7 115.09C419.38 115.48 419.21 115.97 419.19 116.55C419.17 117.13 419.08 117.68 418.92 118.2C419.07 118.26 419.16 118.3 419.2 118.33C419.24 118.36 419.33 118.41 419.48 118.47L419.49 118.45Z" fill="url(#paint1_linear_101_5)"/>
<path d="M477.45 115.75C477.46 115.89 478.13 115.58 479.46 114.8C480.79 114.02 482.26 113.09 483.89 111.99C485.72 110.8 487.85 109.37 490.28 107.69L490.39 108.87C488.34 110.73 486.37 112.36 484.49 113.77C482.87 114.94 481.25 116.01 479.62 117C477.99 117.99 476.73 118.38 475.85 118.18C474.53 117.95 473.69 117.24 473.32 116.04C472.95 114.85 472.8 113.82 472.86 112.95C471.23 114.7 469.7 116.22 468.28 117.51C466.86 118.8 465.67 119.78 464.73 120.45C463.92 120.96 463.14 121.52 462.41 122.14C461.68 122.75 460.86 123.28 459.97 123.73C457.91 124.79 455.64 125.16 453.16 124.82C450.25 124.52 447.9 123.31 446.11 121.17C445.94 120.9 445.77 120.59 445.59 120.25C445.41 119.91 445.23 119.56 445.06 119.22C444.76 117.59 445.19 115.73 446.35 113.63C447.51 111.53 448.93 109.47 450.61 107.43C452.28 105.39 453.99 103.53 455.74 101.85C457.48 100.17 458.75 98.92 459.54 98.13C460 97.72 460.75 97.2 461.76 96.56C462.77 95.92 463.93 95.32 465.2 94.77C466.48 94.21 467.87 93.72 469.38 93.28C470.89 92.85 472.36 92.63 473.8 92.64C474.88 92.68 475.59 93.1 475.92 93.89C476.25 94.69 476.67 95.46 477.17 96.2C477.25 96.34 477.37 96.47 477.53 96.6C477.92 96.92 478.39 97.54 478.95 98.46C479.51 99.38 479.78 100.56 479.78 102C479.81 102.29 479.8 102.59 479.76 102.92C479.72 103.25 479.65 103.6 479.54 103.97C479.47 104.05 479.45 104.11 479.45 104.14C479.45 104.17 479.42 104.23 479.36 104.31C479.16 105.27 478.97 106.37 478.76 107.61C478.56 108.86 478.35 110.07 478.14 111.24C477.93 112.42 477.76 113.42 477.62 114.27C477.49 115.11 477.43 115.61 477.44 115.75H477.45ZM455.02 117.28C456.01 117.11 457.42 116.27 459.26 114.76C461.09 113.25 462.92 111.52 464.75 109.57C466.58 107.63 468.17 105.7 469.54 103.8C470.9 101.9 471.61 100.51 471.67 99.64C470.86 99.5 470.07 99.47 469.28 99.55C468.57 99.62 467.79 99.79 466.95 100.05C466.11 100.31 465.32 100.73 464.59 101.31C464.12 101.72 463.35 102.4 462.25 103.38C461.16 104.35 460 105.44 458.78 106.64C457.56 107.84 456.39 109.09 455.26 110.39C454.13 111.69 453.29 112.87 452.74 113.94C452.2 115 452.06 115.85 452.34 116.47C452.62 117.09 453.51 117.37 455.01 117.29L455.02 117.28Z" fill="url(#paint2_linear_101_5)"/>
<path d="M497.93 95.26C498.33 95.65 498.76 96.03 499.23 96.38C499.7 96.73 500.2 97.13 500.75 97.59C499.92 99.4 499.09 101.21 498.25 103.03C497.42 104.84 496.55 106.66 495.65 108.48C495.53 108.78 495.3 109.31 494.94 110.06C494.58 110.82 494.16 111.65 493.67 112.56C493.18 113.47 492.65 114.44 492.06 115.48C491.47 116.51 490.86 117.45 490.23 118.31C490.98 117.88 491.73 117.41 492.47 116.9C493.21 116.39 493.95 115.85 494.69 115.28C495.29 114.79 495.89 114.28 496.49 113.75C497.09 113.22 497.72 112.71 498.39 112.21L499.87 110.77C500.07 110.61 500.25 110.45 500.42 110.28C500.58 110.12 500.73 109.96 500.86 109.8C500.86 109.73 500.64 109.98 500.23 110.56C499.82 111.14 499.31 111.84 498.7 112.66C498.09 113.48 497.49 114.26 496.88 115C496.27 115.75 495.83 116.28 495.58 116.59C495.05 117.07 494.55 117.54 494.09 117.98C493.63 118.42 493.13 118.81 492.58 119.15C491.77 119.66 490.89 120.14 489.97 120.59C489.05 121.04 488.08 121.39 487.1 121.63C486.14 122.08 485.16 122.02 484.16 121.43C483.17 120.84 482.53 120.16 482.23 119.4C482.12 118.98 482.1 118.42 482.18 117.73C482.26 117.04 482.38 116.3 482.56 115.53C482.74 114.76 482.94 114.03 483.16 113.36C483.38 112.69 483.55 112.2 483.67 111.9C484.04 111.22 484.58 110.17 485.31 108.76C486.04 107.36 486.8 105.91 487.59 104.43C488.38 102.95 489.11 101.56 489.78 100.27C490.45 98.98 490.9 98.11 491.15 97.65C491.46 97.12 491.75 96.6 492.03 96.1C492.31 95.61 492.68 95.15 493.14 94.75C493.87 94.1 494.69 93.84 495.6 93.97C496.51 94.1 497.29 94.53 497.94 95.26H497.93ZM504.75 88.75C504.96 89.45 504.83 90.15 504.36 90.84C503.89 91.53 503.3 91.99 502.6 92.2C501.76 92.43 500.9 92.65 500.02 92.88C499.14 93.11 498.3 93.19 497.51 93.12C496.78 93.05 495.83 92.65 494.64 91.94C493.45 91.23 492.71 90.41 492.41 89.5C492.32 89.37 492.38 89.14 492.56 88.84C492.75 88.53 492.91 88.34 493.04 88.25C494.23 87.92 495.42 87.59 496.62 87.25C497.81 86.92 499.01 86.62 500.21 86.36C500.42 86.27 500.77 86.2 501.27 86.15C501.27 86.08 501.63 86.1 502.36 86.21C503.09 86.32 503.65 86.54 504.04 86.86C504.27 86.98 504.4 87.24 504.44 87.63C504.48 88.02 504.58 88.39 504.76 88.73L504.75 88.75Z" fill="url(#paint3_linear_101_5)"/>
<path d="M534.59 91.27C534.74 91.33 534.99 91.48 535.34 91.74C535.69 92 536.06 92.28 536.45 92.61C536.84 92.93 537.18 93.3 537.47 93.7C537.76 94.11 537.92 94.49 537.96 94.84C537.92 98.16 537.15 101.34 535.64 104.37C534.13 107.4 532.45 110.42 530.58 113.41C531.67 112.8 533 111.84 534.57 110.53C536.13 109.23 537.64 107.89 539.1 106.52C540.55 105.15 541.78 103.95 542.8 102.91C543.82 101.87 544.36 101.35 544.43 101.34C544.17 101.65 543.43 102.56 542.21 104.04C540.99 105.53 539.49 107.21 537.73 109.07C535.97 110.94 534.04 112.8 531.95 114.66C529.86 116.52 527.87 118.03 525.96 119.19C524.06 120.35 522.38 120.94 520.95 120.97C519.51 121 518.53 120.1 517.99 118.28C517.8 117.79 517.82 117.32 518.07 116.87C518.93 115.34 519.8 113.78 520.69 112.18C521.58 110.58 522.45 109.02 523.31 107.49C523.55 107.03 523.91 106.4 524.37 105.6C524.83 104.8 525.28 104.02 525.71 103.25C526.14 102.49 526.52 101.78 526.86 101.14C527.19 100.5 527.39 100.1 527.45 99.95C526.03 100.16 524.52 100.54 522.92 101.09C521.32 101.64 519.58 102.7 517.72 104.25C517.19 104.73 516.56 105.64 515.82 106.98C515.09 108.31 514.32 109.76 513.54 111.31C512.75 112.87 512 114.33 511.26 115.7C510.52 117.07 509.93 117.99 509.48 118.47C508.56 119.35 507.66 119.91 506.78 120.14C505.9 120.37 504.92 120.14 503.85 119.45C503.69 119.32 503.69 119.27 503.83 119.29C503.98 119.31 503.98 119.33 503.83 119.34C503.15 118.97 502.53 118.57 501.98 118.11C501.51 117.72 501.07 117.26 500.66 116.72C500.25 116.18 500.04 115.55 500.05 114.83C501 113.44 502.13 111.44 503.46 108.82C504.79 106.2 506.13 103.53 507.49 100.8C508.85 98.07 510.09 95.52 511.23 93.13C512.37 90.75 513.18 89.1 513.67 88.19C514.27 86.98 515.16 86.46 516.33 86.63C517.22 86.91 518.13 87.14 519.05 87.34C519.97 87.54 520.84 87.78 521.66 88.06C522.25 88.22 522.64 88.65 522.81 89.36C522.99 90.07 522.89 90.72 522.52 91.34C521.84 92.56 521.21 93.79 520.61 95.04C520.01 96.29 519.45 97.59 518.93 98.94C519.66 98.29 520.4 97.61 521.16 96.88C521.92 96.16 522.73 95.47 523.6 94.8C524.47 94.14 525.36 93.48 526.27 92.81C527.18 92.15 528.11 91.52 529.06 90.92C530.02 90.39 530.94 90.27 531.83 90.54C532.72 90.82 533.64 91.05 534.6 91.25L534.59 91.27Z" fill="url(#paint4_linear_101_5)"/>
<path d="M208.37 20.91V1.93H211L222.6 17.47L222.17 17.71C222.04 16.97 221.94 16.11 221.86 15.13C221.78 14.15 221.72 13.08 221.68 11.9C221.64 10.72 221.63 9.48 221.63 8.16V1.93H224.56V20.91H221.88L210.47 5.94L210.77 5.56C210.9 6.93 211 8.06 211.07 8.94C211.14 9.82 211.2 10.52 211.23 11.04C211.27 11.56 211.29 11.98 211.3 12.27C211.3 12.57 211.31 12.82 211.31 13.02V20.91H208.38H208.37Z" fill="white"/>
<path d="M235.8 21.18C234.34 21.18 233.04 20.87 231.91 20.24C230.78 19.62 229.89 18.76 229.25 17.68C228.61 16.6 228.29 15.35 228.29 13.94C228.29 12.82 228.47 11.8 228.83 10.88C229.19 9.96 229.69 9.16 230.33 8.48C230.97 7.8 231.74 7.28 232.63 6.91C233.52 6.54 234.5 6.35 235.54 6.35C236.46 6.35 237.32 6.53 238.12 6.88C238.92 7.23 239.61 7.72 240.19 8.33C240.77 8.94 241.23 9.67 241.55 10.51C241.87 11.35 242.01 12.27 242 13.26L241.97 14.45H230.34L229.72 12.23H239.56L239.15 12.69V12.04C239.1 11.44 238.9 10.91 238.55 10.44C238.21 9.97 237.77 9.6 237.25 9.33C236.73 9.06 236.16 8.92 235.54 8.92C234.56 8.92 233.74 9.11 233.07 9.48C232.4 9.85 231.9 10.39 231.55 11.11C231.21 11.82 231.04 12.71 231.04 13.75C231.04 14.79 231.25 15.61 231.66 16.34C232.08 17.07 232.66 17.64 233.42 18.03C234.18 18.43 235.06 18.63 236.05 18.63C236.75 18.63 237.41 18.51 238.02 18.28C238.63 18.05 239.28 17.62 239.98 17.01L241.39 18.99C240.96 19.42 240.43 19.8 239.8 20.13C239.17 20.46 238.52 20.71 237.82 20.9C237.12 21.09 236.44 21.19 235.77 21.19L235.8 21.18Z" fill="white"/>
<path d="M249.43 20.91L243.41 6.67H246.42L250.76 17.33L250.24 17.57L254.88 6.67H257.75L251.43 20.91H249.42H249.43Z" fill="white"/>
<path d="M266.54 21.18C265.08 21.18 263.78 20.87 262.65 20.24C261.52 19.62 260.63 18.76 259.99 17.68C259.35 16.6 259.03 15.35 259.03 13.94C259.03 12.82 259.21 11.8 259.57 10.88C259.93 9.96 260.43 9.16 261.07 8.48C261.71 7.8 262.48 7.28 263.37 6.91C264.26 6.54 265.24 6.35 266.28 6.35C267.2 6.35 268.06 6.53 268.86 6.88C269.66 7.23 270.35 7.72 270.93 8.33C271.51 8.94 271.97 9.67 272.29 10.51C272.61 11.35 272.75 12.27 272.74 13.26L272.71 14.45H261.08L260.46 12.23H270.3L269.89 12.69V12.04C269.84 11.44 269.64 10.91 269.29 10.44C268.95 9.97 268.51 9.6 267.99 9.33C267.47 9.06 266.9 8.92 266.28 8.92C265.3 8.92 264.48 9.11 263.81 9.48C263.14 9.85 262.64 10.39 262.29 11.11C261.95 11.82 261.78 12.71 261.78 13.75C261.78 14.79 261.99 15.61 262.4 16.34C262.82 17.07 263.4 17.64 264.16 18.03C264.92 18.43 265.8 18.63 266.79 18.63C267.49 18.63 268.15 18.51 268.76 18.28C269.37 18.05 270.02 17.62 270.72 17.01L272.13 18.99C271.7 19.42 271.17 19.8 270.54 20.13C269.91 20.46 269.26 20.71 268.56 20.9C267.86 21.09 267.18 21.19 266.51 21.19L266.54 21.18Z" fill="white"/>
<path d="M275.78 20.91V6.67H278.6V11.14L278.33 10.06C278.53 9.37 278.87 8.75 279.35 8.19C279.83 7.63 280.38 7.19 281 6.86C281.62 6.53 282.27 6.37 282.94 6.37C283.25 6.37 283.54 6.4 283.82 6.45C284.1 6.5 284.32 6.57 284.48 6.64L283.75 9.68C283.53 9.59 283.29 9.51 283.03 9.45C282.77 9.39 282.51 9.35 282.26 9.35C281.77 9.35 281.31 9.45 280.86 9.64C280.42 9.83 280.03 10.09 279.69 10.43C279.36 10.76 279.09 11.15 278.89 11.6C278.69 12.04 278.59 12.53 278.59 13.05V20.91H275.77H275.78Z" fill="white"/>
<path d="M295 20.91V1.93H302.92C304.13 1.93 305.15 2.11 305.98 2.47C306.81 2.83 307.44 3.37 307.86 4.08C308.28 4.79 308.5 5.67 308.5 6.7C308.5 7.73 308.22 8.61 307.65 9.33C307.08 10.05 306.29 10.55 305.28 10.82V10.28C306.13 10.46 306.87 10.78 307.5 11.24C308.13 11.7 308.62 12.28 308.98 12.96C309.33 13.65 309.51 14.43 309.51 15.32C309.51 16.21 309.37 17.02 309.09 17.72C308.81 18.42 308.39 19 307.84 19.47C307.29 19.94 306.62 20.3 305.85 20.54C305.07 20.78 304.19 20.91 303.19 20.91H295V20.91ZM297.93 9.79H302.76C303.3 9.79 303.79 9.68 304.21 9.46C304.63 9.24 304.97 8.94 305.21 8.57C305.45 8.19 305.58 7.76 305.58 7.27C305.58 6.46 305.31 5.83 304.77 5.4C304.23 4.97 303.45 4.75 302.44 4.75H297.94V9.8L297.93 9.79ZM297.93 18.09H303.03C304.13 18.09 304.99 17.85 305.61 17.36C306.22 16.87 306.53 16.18 306.53 15.27C306.53 14.71 306.38 14.23 306.08 13.83C305.78 13.43 305.36 13.13 304.82 12.92C304.28 12.71 303.64 12.61 302.9 12.61H297.94V18.09H297.93Z" fill="white"/>
<path d="M317.74 21.18C316.73 21.18 315.85 20.94 315.1 20.48C314.35 20.01 313.77 19.35 313.36 18.5C312.95 17.65 312.75 16.64 312.75 15.46V6.67H315.54V14.7C315.54 15.95 315.83 16.93 316.42 17.66C317.01 18.38 317.82 18.74 318.87 18.74C319.39 18.74 319.87 18.65 320.31 18.48C320.74 18.31 321.12 18.07 321.43 17.76C321.75 17.45 321.99 17.08 322.18 16.65C322.36 16.22 322.45 15.75 322.45 15.24V6.67H325.24V20.91H322.45V17.93L322.94 17.6C322.72 18.27 322.36 18.88 321.84 19.42C321.32 19.96 320.72 20.39 320.01 20.71C319.3 21.03 318.55 21.18 317.73 21.18H317.74Z" fill="white"/>
<path d="M330.97 3.53C330.37 3.53 329.91 3.38 329.59 3.07C329.26 2.76 329.1 2.33 329.1 1.77C329.1 1.25 329.27 0.820002 329.6 0.500002C329.93 0.180002 330.39 0.0100021 330.97 0.0100021C331.55 0.0100021 332.03 0.160002 332.35 0.470002C332.67 0.780002 332.84 1.21 332.84 1.77C332.84 2.3 332.67 2.72 332.34 3.05C332.01 3.37 331.55 3.54 330.97 3.54V3.53ZM329.61 20.91V6.67H332.4V20.91H329.61Z" fill="white"/>
<path d="M336.75 20.91V0.840004H339.54V20.91H336.75Z" fill="white"/>
<path d="M349.16 21.18C347.86 21.18 346.7 20.86 345.68 20.22C344.66 19.58 343.85 18.7 343.25 17.59C342.65 16.48 342.36 15.21 342.36 13.78C342.36 12.35 342.65 11.08 343.24 9.97C343.83 8.86 344.63 7.98 345.64 7.34C346.65 6.7 347.8 6.38 349.08 6.38C349.78 6.38 350.47 6.49 351.13 6.72C351.79 6.95 352.38 7.25 352.91 7.64C353.43 8.03 353.85 8.45 354.14 8.92C354.44 9.38 354.59 9.85 354.59 10.32L353.78 10.38V0.840004H356.57V20.91H353.78V17.52H354.32C354.32 17.95 354.18 18.38 353.89 18.81C353.6 19.24 353.22 19.63 352.74 19.99C352.26 20.35 351.71 20.64 351.09 20.86C350.47 21.08 349.83 21.19 349.18 21.19L349.16 21.18ZM349.54 18.77C350.39 18.77 351.14 18.55 351.79 18.12C352.44 17.69 352.95 17.09 353.32 16.34C353.69 15.59 353.88 14.74 353.88 13.78C353.88 12.82 353.69 11.97 353.32 11.22C352.95 10.47 352.44 9.88 351.79 9.44C351.14 9 350.39 8.79 349.54 8.79C348.69 8.79 347.94 9.01 347.29 9.44C346.64 9.87 346.13 10.47 345.76 11.22C345.39 11.97 345.2 12.82 345.2 13.78C345.2 14.74 345.39 15.59 345.76 16.34C346.13 17.09 346.64 17.68 347.29 18.12C347.94 18.55 348.69 18.77 349.54 18.77Z" fill="white"/>
</g>
<defs>
<linearGradient id="paint0_linear_101_5" x1="416.99" y1="58.21" x2="380.6" y2="168.92" gradientUnits="userSpaceOnUse">
<stop stop-color="#FFEF26"/>
<stop offset="0.04" stop-color="#FEE921"/>
<stop offset="0.21" stop-color="#FDD70E"/>
<stop offset="0.39" stop-color="#FDCB03"/>
<stop offset="0.58" stop-color="#FDC800"/>
<stop offset="1" stop-color="#F18F34"/>
</linearGradient>
<linearGradient id="paint1_linear_101_5" x1="445.8" y1="67.67" x2="409.41" y2="178.38" gradientUnits="userSpaceOnUse">
<stop stop-color="#FFEF26"/>
<stop offset="0.04" stop-color="#FEE921"/>
<stop offset="0.21" stop-color="#FDD70E"/>
<stop offset="0.39" stop-color="#FDCB03"/>
<stop offset="0.58" stop-color="#FDC800"/>
<stop offset="1" stop-color="#F18F34"/>
</linearGradient>
<linearGradient id="paint2_linear_101_5" x1="478.98" y1="78.58" x2="442.59" y2="189.29" gradientUnits="userSpaceOnUse">
<stop stop-color="#FFEF26"/>
<stop offset="0.04" stop-color="#FEE921"/>
<stop offset="0.21" stop-color="#FDD70E"/>
<stop offset="0.39" stop-color="#FDCB03"/>
<stop offset="0.58" stop-color="#FDC800"/>
<stop offset="1" stop-color="#F18F34"/>
</linearGradient>
<linearGradient id="paint3_linear_101_5" x1="500.52" y1="85.66" x2="464.14" y2="196.37" gradientUnits="userSpaceOnUse">
<stop stop-color="#FFEF26"/>
<stop offset="0.04" stop-color="#FEE921"/>
<stop offset="0.21" stop-color="#FDD70E"/>
<stop offset="0.39" stop-color="#FDCB03"/>
<stop offset="0.58" stop-color="#FDC800"/>
<stop offset="1" stop-color="#F18F34"/>
</linearGradient>
<linearGradient id="paint4_linear_101_5" x1="526.78" y1="94.29" x2="490.39" y2="205" gradientUnits="userSpaceOnUse">
<stop stop-color="#FFEF26"/>
<stop offset="0.04" stop-color="#FEE921"/>
<stop offset="0.21" stop-color="#FDD70E"/>
<stop offset="0.39" stop-color="#FDCB03"/>
<stop offset="0.58" stop-color="#FDC800"/>
<stop offset="1" stop-color="#F18F34"/>
</linearGradient>
<clipPath id="clip0_101_5">
<rect width="564.93" height="152.38" fill="white"/>
</clipPath>
</defs>
</svg>
